<svg width="1116" height="438" viewBox="0 0 1116 438" fill="none" xmlns="http://www.w3.org/2000/svg">
<path d="M369.689 275.495V156.473H410.603V267.312C410.603 284.67 413.702 297.812 419.901 306.739C426.348 315.417 435.647 319.757 447.797 319.757C455.484 319.757 462.923 318.145 470.114 314.921C477.553 311.698 484.248 306.987 490.199 300.787C496.398 294.34 501.357 286.654 505.077 277.727V156.473H545.99V304.879C545.99 309.59 546.858 312.938 548.594 314.921C550.33 316.905 553.181 318.021 557.149 318.269V351C552.933 351.744 549.462 352.24 546.734 352.488C544.007 352.736 541.403 352.86 538.923 352.86C531.485 352.86 525.286 350.876 520.326 346.909C515.367 342.693 512.515 337.362 511.772 330.915L511.028 311.574C502.349 325.708 491.067 336.494 477.181 343.933C463.295 351.124 448.045 354.719 431.431 354.719C411.098 354.719 395.725 348.024 385.31 334.634C374.896 321.244 369.689 301.531 369.689 275.495ZM708.67 354.719C693.048 354.719 679.286 351 667.384 343.561C655.482 336.122 646.059 326.452 639.116 314.549V430.224H598.202V156.473H634.281V191.436C641.72 179.781 651.39 170.483 663.293 163.54C675.195 156.597 688.461 153.125 703.091 153.125C716.481 153.125 728.755 155.853 739.913 161.308C751.071 166.515 760.742 173.83 768.925 183.253C777.108 192.676 783.431 203.462 787.894 215.612C792.605 227.514 794.961 240.16 794.961 253.55C794.961 272.148 791.241 289.133 783.803 304.507C776.612 319.881 766.445 332.155 753.303 341.329C740.409 350.256 725.531 354.719 708.67 354.719ZM695.28 319.757C703.958 319.757 711.769 317.897 718.712 314.177C725.903 310.458 731.978 305.499 736.938 299.3C742.145 293.101 746.112 286.034 748.84 278.099C751.567 270.164 752.931 261.981 752.931 253.55C752.931 244.624 751.443 236.193 748.468 228.258C745.492 220.323 741.153 213.38 735.45 207.429C729.995 201.478 723.548 196.767 716.109 193.295C708.918 189.824 700.983 188.088 692.304 188.088C687.097 188.088 681.642 189.08 675.939 191.064C670.235 193.047 664.904 195.775 659.945 199.247C654.986 202.718 650.646 206.809 646.927 211.521C643.207 216.232 640.604 221.191 639.116 226.399V277.355C642.588 285.29 647.175 292.481 652.878 298.928C658.581 305.127 665.152 310.21 672.591 314.177C680.03 317.897 687.593 319.757 695.28 319.757ZM825.062 329.427C825.062 328.435 825.062 327.443 825.062 326.452C825.31 325.212 825.558 324.096 825.806 323.104L859.281 165.4H832.873L834.361 157.961H861.141L875.275 90.6387H882.714L868.58 157.961H912.469L910.982 165.4H866.72L836.965 304.135C835.477 311.078 834.361 316.161 833.617 319.385C833.121 322.36 832.873 324.716 832.873 326.452C832.873 332.651 834.857 337.362 838.824 340.586C843.04 343.809 847.875 345.421 853.33 345.421C858.785 345.421 863.745 344.677 868.208 343.189C872.919 341.701 876.763 340.214 879.738 338.726C882.962 337.238 884.697 336.37 884.945 336.122L887.549 342.073C887.549 342.073 885.813 343.065 882.342 345.049C879.118 346.785 874.779 348.52 869.324 350.256C863.869 351.992 857.917 352.86 851.47 352.86C843.784 352.86 837.46 350.752 832.501 346.537C827.542 342.073 825.062 336.37 825.062 329.427ZM988.552 354.719C972.931 354.719 959.913 351.124 949.498 343.933C939.084 336.742 931.273 327.072 926.066 314.921C920.858 302.771 918.255 289.381 918.255 274.751C918.255 257.89 921.23 242.268 927.182 227.886C933.381 213.256 941.687 200.486 952.102 189.576C962.516 178.666 974.295 170.235 987.437 164.284C1000.58 158.085 1014.09 154.985 1027.98 154.985C1043.6 154.985 1056.49 158.705 1066.66 166.143C1077.08 173.334 1084.89 183.005 1090.09 195.155C1095.3 207.305 1097.9 220.819 1097.9 235.697C1097.9 252.311 1094.93 267.808 1088.98 282.19C1083.03 296.572 1074.84 309.218 1064.43 320.129C1054.26 331.039 1042.61 339.594 1029.47 345.793C1016.32 351.744 1002.69 354.719 988.552 354.719ZM989.668 347.281C1002.56 347.281 1014.96 344.553 1026.86 339.098C1039.01 333.395 1049.8 325.584 1059.22 315.665C1068.89 305.499 1076.46 293.721 1081.91 280.33C1087.61 266.94 1090.47 252.559 1090.47 237.185C1090.47 223.547 1088.11 211.149 1083.4 199.99C1078.69 188.584 1071.62 179.533 1062.2 172.838C1052.77 165.895 1040.87 162.424 1026.49 162.424C1013.6 162.424 1001.07 165.276 988.924 170.979C977.022 176.682 966.236 184.617 956.565 194.783C947.143 204.95 939.58 216.728 933.877 230.118C928.421 243.508 925.694 258.014 925.694 273.635C925.694 287.273 928.049 299.672 932.761 310.83C937.472 321.988 944.539 330.915 953.962 337.61C963.632 344.057 975.534 347.281 989.668 347.281Z" fill="black"/>
<path d="M190.837 156.302V32.3793C190.837 22.5424 178.126 18.6166 172.579 26.7403L10.6784 263.851C6.14621 270.488 10.8996 279.49 18.9368 279.49H118.191C123.806 279.49 128.32 284.111 128.188 289.725L125.566 401.103C125.328 411.228 138.562 415.252 144 406.708L287.219 181.671C291.456 175.014 286.673 166.302 278.782 166.302L200.837 166.302C195.315 166.302 190.837 161.825 190.837 156.302Z" fill="#FF6200"/>
</svg>
